<svg xmlns="http://www.w3.org/2000/svg" width="1280" height="411.363" viewBox="0 0 1280 411.363">
    <defs>
        <style>
            .cls-1{fill:#fff}
        </style>
    </defs>
    <path id="hero-divider" d="M1280 418H0V6.638a714.147 714.147 0 0 0 109.545 161.8 716.376 716.376 0 0 0 148.729 125.876 709.513 709.513 0 0 0 179.592 81.628 711.023 711.023 0 0 0 48.745 12.518 711.627 711.627 0 0 0 50.024 9.1 718.097 718.097 0 0 0 51.173 5.557C605.061 404.367 622.621 405 640 405s34.94-.633 52.192-1.881a715.522 715.522 0 0 0 51.173-5.557 715.004 715.004 0 0 0 50.024-9.1 710.56 710.56 0 0 0 48.745-12.518 709.523 709.523 0 0 0 179.592-81.627 716.388 716.388 0 0 0 148.729-125.877A714.155 714.155 0 0 0 1280 6.639V418z" class="cls-1" transform="translate(0 -6.637)"/>
</svg>
