<svg xmlns="http://www.w3.org/2000/svg" width="131.253" height="40" viewBox="0 0 131.253 40">
    <defs>
        <style>
            .cls-1{fill:#00bbf4}.cls-2{fill:#fff}
        </style>
    </defs>
    <g id="lupark_logo" data-name="lupark logo" transform="translate(-144 -103)">
        <g id="Group_7" data-name="Group 7" transform="translate(144 103)">
            <circle id="Ellipse_2" cx="20" cy="20" r="20" class="cls-1" data-name="Ellipse 2"/>
            <g id="Group_6" data-name="Group 6" transform="translate(7.624 18.544)">
                <path id="Path_8" d="M74.755 127.477a13.168 13.168 0 0 1-7.281 4.743 11.671 11.671 0 0 1-1.216.259q-.6.093-1.2.165a13.682 13.682 0 0 1-9.4-2.178l.041-.011a10.538 10.538 0 0 1-4.456-5.822 12.384 12.384 0 0 0 24.75.832 11.4 11.4 0 0 1-1.238 2.012z" class="cls-2" data-name="Path 8" transform="translate(-51.244 -124.633)"/>
            </g>
        </g>
        <g id="Group_8" data-name="Group 8" transform="translate(192.038 113.555)">
            <path id="Path_9" d="M334.591 78.749V81.5h-11.725V59.716h2.781v19.033h8.944z" data-name="Path 9" transform="translate(-322.866 -59.672)"/>
            <path id="Path_10" d="M433.019 100.718v15.734h-2.7v-.709a6.051 6.051 0 0 1-3.654 1.172q-.273 0-.477-.014t-.423-.041a5.455 5.455 0 0 1-4.445-2.7 10.905 10.905 0 0 1-.954-4.963v-8.48h2.781v8.508a12.229 12.229 0 0 0 .191 1.936 7.011 7.011 0 0 0 .436 1.5 2.809 2.809 0 0 0 2.809 1.554 3.141 3.141 0 0 0 1.363-.341 7.276 7.276 0 0 0 1.391-.886 3.711 3.711 0 0 0 .982-1.391v-10.88h2.7z" data-name="Path 10" transform="translate(-405.859 -94.574)"/>
            <path id="Path_11" d="M537.772 106.855v.341a1.256 1.256 0 0 1-.055.341l.027-.054a8.6 8.6 0 0 1-2.754 5.808 7.436 7.436 0 0 1-5.181 1.772q-.546 0-1.268-.041t-1.6-.123v6.092h-2.721V99.056q2.236-.191 3.613-.3t1.9-.109a2.383 2.383 0 0 1 .382-.027h.436a6.7 6.7 0 0 1 4.69 1.636v-.027a7.785 7.785 0 0 1 2.536 5.7zm-2.754 0c.018-.2.027-.35.027-.45v-.232a5.817 5.817 0 0 0-1.554-3.668 4.263 4.263 0 0 0-3.381-1.186c-.255 0-.491 0-.709.014l-.682.027q-.355.014-.777.054l-1 .1v10.716q1.227.082 2.045.123t1.118.041a4.393 4.393 0 0 0 3.19-1.227 6.643 6.643 0 0 0 1.663-3.79q.027-.136.041-.273t.014-.191z" data-name="Path 11" transform="translate(-494.262 -92.788)"/>
            <path id="Path_12" d="M632.522 98.813q1.036.027 2.386.109t3.149.3v15.57h-2.7v-1.227l-.109.054a7.181 7.181 0 0 1-2.072 1.254 6.4 6.4 0 0 1-2.345.436 6 6 0 0 1-4.963-2.509 8.389 8.389 0 0 1-1.718-5.263 7.465 7.465 0 0 1 .041-.791q.041-.382.1-.764a8.715 8.715 0 0 1 2.89-5.426v.027a6.889 6.889 0 0 1 5.341-1.77zm2.836 2.836q-1.255-.082-2.059-.123t-1.1-.041a4.6 4.6 0 0 0-3.354 1.2v-.027a5.508 5.508 0 0 0-1.418 2.236 5.879 5.879 0 0 0-.382 1.323 8.519 8.519 0 0 0-.109 1.377 6.007 6.007 0 0 0 .191 1.541 6.823 6.823 0 0 0 .491 1.323 5.418 5.418 0 0 0 1.414 1.542 2.874 2.874 0 0 0 1.691.559 4.49 4.49 0 0 0 2.918-1.2v.027a5.252 5.252 0 0 0 1.718-4.063z" data-name="Path 12" transform="translate(-579.324 -92.934)"/>
            <path id="Path_13" d="M739.3 100.315a9.538 9.538 0 0 1 3.736-1.745v2.781a5.836 5.836 0 0 0-2.045 1.063 5.932 5.932 0 0 0-1.827 3.736q-.082.464-.109.7t-.027.286v7.464H736.3V98.843h2.727v1.745a.96.96 0 0 1 .273-.273z" data-name="Path 13" transform="translate(-674.786 -92.745)"/>
            <path id="Path_14" d="M800.581 59.422v21.871h2.678v-6.966c1.041 1.055 2.04 2.166 3.04 3.32s2.013 2.308 3.013 3.647h3.409a76.052 76.052 0 0 0-7.526-8.854l7.09-6.918h-3.9c-.818.744-1.672 1.639-2.535 2.493s-1.7 1.694-2.59 2.548V59.422z" data-name="Path 14" transform="translate(-729.504 -59.422)"/>
        </g>
    </g>
</svg>
